# Blender 4.0.2
# www.blender.org
mtllib untitled.mtl
o Plane_0
v -3.943218 0.032337 3.943218
v 3.943218 0.032337 3.943218
v 3.943218 0.032336 -3.943218
v -3.943218 0.032336 -3.943218
v -2.651552 0.447047 0.759353
v -2.580054 0.447047 1.009312
v -2.834513 0.201827 0.975485
v -2.507007 0.447046 -1.106589
v -2.615162 0.447046 -0.877970
v -2.779467 0.201826 -1.065997
v -1.216622 0.447046 -2.433125
v -1.426287 0.447046 -2.327026
v -1.439639 0.201826 -2.558686
v 0.637339 0.447046 -2.649466
v 0.418614 0.447046 -2.695750
v 0.556901 0.201826 -2.882049
v 2.202896 0.447046 -1.643283
v 2.065414 0.447046 -1.799929
v 2.296895 0.201826 -1.857717
v 2.755445 0.447047 0.143234
v 2.763761 0.447047 -0.065030
v 2.971339 0.201827 0.052632
v 2.028459 0.447047 1.902719
v 2.157923 0.447047 1.739398
v 2.256274 0.201827 1.956812
v 0.339129 0.447047 2.767665
v 0.544503 0.447047 2.732140
v 0.472975 0.201827 2.959746
v -1.525263 0.447047 2.335133
v -1.346087 0.447047 2.441589
v -1.548360 0.201827 2.568104
v -0.503613 0.640349 -1.215847
v 0.000000 0.640349 -1.316016
v 0.000000 0.525369 -1.813012
v -0.693816 0.525369 -1.674994
v -0.930572 0.640349 -0.930572
v -0.503613 0.640349 -1.215847
v -0.693816 0.525369 -1.674994
v -1.281980 0.525369 -1.281981
v -1.215847 0.640349 -0.503613
v -0.930572 0.640349 -0.930572
v -1.281980 0.525369 -1.281981
v -1.674994 0.525369 -0.693816
v -1.316015 0.640349 -0.000000
v -1.215847 0.640349 -0.503613
v -1.674994 0.525369 -0.693816
v -1.813012 0.525369 -0.000000
v -1.215847 0.640350 0.503613
v -1.316015 0.640349 -0.000000
v -1.813012 0.525369 -0.000000
v -1.674994 0.525369 0.693816
v -0.930572 0.640350 0.930572
v -1.215847 0.640350 0.503613
v -1.674994 0.525369 0.693816
v -1.281980 0.525369 1.281980
v -0.503613 0.640350 1.215847
v -0.930572 0.640350 0.930572
v -1.281980 0.525369 1.281980
v -0.693816 0.525369 1.674994
v 0.000000 0.640350 1.316015
v -0.503613 0.640350 1.215847
v -0.693816 0.525369 1.674994
v 0.000000 0.525369 1.813012
v 0.503613 0.640350 1.215847
v 0.000000 0.640350 1.316015
v 0.000000 0.525369 1.813012
v 0.693816 0.525369 1.674994
v 0.930572 0.640350 0.930572
v 0.503613 0.640350 1.215847
v 0.693816 0.525369 1.674994
v 1.281980 0.525369 1.281980
v 1.215847 0.640350 0.503613
v 0.930572 0.640350 0.930572
v 1.281980 0.525369 1.281980
v 1.674994 0.525369 0.693816
v 1.316015 0.640349 -0.000000
v 1.215847 0.640350 0.503613
v 1.674994 0.525369 0.693816
v 1.813012 0.525369 -0.000000
v 1.215847 0.640349 -0.503613
v 1.316015 0.640349 -0.000000
v 1.813012 0.525369 -0.000000
v 1.674994 0.525369 -0.693816
v 0.930572 0.640349 -0.930572
v 1.215847 0.640349 -0.503613
v 1.674994 0.525369 -0.693816
v 1.281980 0.525369 -1.281981
v 0.503613 0.640349 -1.215847
v 0.930572 0.640349 -0.930572
v 1.281980 0.525369 -1.281981
v 0.693816 0.525369 -1.674994
v 0.000000 0.640349 -1.316016
v 0.503613 0.640349 -1.215847
v 0.693816 0.525369 -1.674994
v 0.000000 0.525369 -1.813012
v 0.000000 0.543638 -0.560835
v -0.214612 0.543638 -0.518157
v -0.396560 0.543638 -0.396560
v -0.518157 0.543638 -0.214612
v -0.560835 0.543638 -0.000000
v -0.518157 0.543638 0.214612
v -0.396560 0.543638 0.396560
v -0.214612 0.543638 0.518157
v 0.000000 0.543638 0.560835
v 0.214612 0.543638 0.518157
v 0.396560 0.543638 0.396560
v 0.518157 0.543638 0.214612
v 0.560835 0.543638 -0.000000
v 0.518157 0.543638 -0.214612
v 0.396560 0.543638 -0.396560
v 0.214612 0.543638 -0.518157
v -0.214612 0.543638 -0.518157
v 0.000000 0.543638 -0.560835
v 0.000000 0.341841 -1.023409
v -0.391643 0.341841 -0.945504
v -0.396560 0.543638 -0.396560
v -0.214612 0.543638 -0.518157
v -0.391643 0.341841 -0.945504
v -0.723649 0.341841 -0.723649
v -0.518157 0.543638 -0.214612
v -0.396560 0.543638 -0.396560
v -0.723649 0.341841 -0.723649
v -0.945503 0.341842 -0.391643
v -0.560835 0.543638 -0.000000
v -0.518157 0.543638 -0.214612
v -0.945503 0.341842 -0.391643
v -1.023409 0.341842 -0.000000
v -0.518157 0.543638 0.214612
v -0.560835 0.543638 -0.000000
v -1.023409 0.341842 -0.000000
v -0.945503 0.341842 0.391643
v -0.396560 0.543638 0.396560
v -0.518157 0.543638 0.214612
v -0.945503 0.341842 0.391643
v -0.723649 0.341842 0.723649
v -0.214612 0.543638 0.518157
v -0.396560 0.543638 0.396560
v -0.723649 0.341842 0.723649
v -0.391643 0.341842 0.945503
v 0.000000 0.543638 0.560835
v -0.214612 0.543638 0.518157
v -0.391643 0.341842 0.945503
v 0.000000 0.341842 1.023409
v 0.214612 0.543638 0.518157
v 0.000000 0.543638 0.560835
v 0.000000 0.341842 1.023409
v 0.391643 0.341842 0.945503
v 0.396560 0.543638 0.396560
v 0.214612 0.543638 0.518157
v 0.391643 0.341842 0.945503
v 0.723649 0.341842 0.723649
v 0.518157 0.543638 0.214612
v 0.396560 0.543638 0.396560
v 0.723649 0.341842 0.723649
v 0.945503 0.341842 0.391643
v 0.560835 0.543638 -0.000000
v 0.518157 0.543638 0.214612
v 0.945503 0.341842 0.391643
v 1.023409 0.341842 -0.000000
v 0.518157 0.543638 -0.214612
v 0.560835 0.543638 -0.000000
v 1.023409 0.341842 -0.000000
v 0.945503 0.341842 -0.391643
v 0.396560 0.543638 -0.396560
v 0.518157 0.543638 -0.214612
v 0.945503 0.341842 -0.391643
v 0.723649 0.341841 -0.723649
v 0.214612 0.543638 -0.518157
v 0.396560 0.543638 -0.396560
v 0.723649 0.341841 -0.723649
v 0.391643 0.341841 -0.945504
v 0.000000 0.543638 -0.560835
v 0.214612 0.543638 -0.518157
v 0.391643 0.341841 -0.945504
v 0.000000 0.341841 -1.023409
vn 0.6937 -0.6924 -0.1984
vn 0.6608 -0.6824 0.3126
vn 0.3411 -0.6553 0.6740
vn -0.1570 -0.6520 0.7418
vn -0.5685 -0.6542 0.4989
vn -0.7557 -0.6542 -0.0302
vn -0.5927 -0.6542 -0.4698
vn -0.1289 -0.6542 -0.7453
vn 0.3863 -0.6542 -0.6502
vn -0.0000 1.0000 -0.0000
vn -0.0448 0.9733 -0.2252
vn -0.1275 0.9733 -0.1909
vn -0.1276 0.9733 -0.1909
vn -0.1909 0.9733 -0.1276
vn -0.2252 0.9733 -0.0448
vn -0.2252 0.9733 0.0448
vn -0.1909 0.9733 0.1275
vn -0.1909 0.9733 0.1276
vn -0.1276 0.9733 0.1909
vn -0.0448 0.9733 0.2252
vn 0.0448 0.9733 0.2252
vn 0.1275 0.9733 0.1909
vn 0.1276 0.9733 0.1909
vn 0.1909 0.9733 0.1276
vn 0.2252 0.9733 0.0448
vn 0.2252 0.9733 -0.0448
vn 0.1909 0.9733 -0.1275
vn 0.1909 0.9733 -0.1276
vn 0.1276 0.9733 -0.1909
vn 0.0448 0.9733 -0.2252
vn -0.0793 0.9137 -0.3986
vn -0.2258 0.9137 -0.3379
vn -0.3379 0.9137 -0.2258
vn -0.3986 0.9137 -0.0793
vn -0.3986 0.9137 0.0793
vn -0.3379 0.9137 0.2258
vn -0.2258 0.9137 0.3379
vn -0.0793 0.9137 0.3986
vn 0.0793 0.9137 0.3986
vn 0.2258 0.9137 0.3379
vn 0.3379 0.9137 0.2258
vn 0.3986 0.9137 0.0793
vn 0.3986 0.9137 -0.0793
vn 0.3379 0.9137 -0.2258
vn 0.2258 0.9137 -0.3379
vn 0.0793 0.9137 -0.3986
vt 0.163200 0.596620
vt 0.172300 0.628420
vt 0.139930 0.624120
vt 0.181590 0.359240
vt 0.167840 0.388320
vt 0.146930 0.364400
vt 0.345750 0.190480
vt 0.319080 0.203980
vt 0.317380 0.174510
vt 0.581610 0.162960
vt 0.553780 0.157070
vt 0.571370 0.133370
vt 0.780770 0.290960
vt 0.763280 0.271040
vt 0.792730 0.263690
vt 0.851070 0.518240
vt 0.852120 0.491750
vt 0.878530 0.506710
vt 0.758580 0.742080
vt 0.775050 0.721300
vt 0.787560 0.748960
vt 0.543670 0.852110
vt 0.569800 0.847590
vt 0.560700 0.876550
vt 0.306490 0.797090
vt 0.329280 0.810630
vt 0.303550 0.826730
vt 0.500670 0.411380
vt 0.467420 0.417990
vt 0.439230 0.436830
vt 0.420390 0.465020
vt 0.413780 0.498270
vt 0.420390 0.531520
vt 0.439230 0.559710
vt 0.467420 0.578550
vt 0.500670 0.585160
vt 0.533920 0.578550
vt 0.562110 0.559710
vt 0.580950 0.531520
vt 0.587560 0.498270
vt 0.580950 0.465020
vt 0.562110 0.436830
vt 0.533920 0.417990
vt 0.000000 1.000000
vt 1.000000 1.000000
vt 1.000000 0.000000
vt 0.000000 0.000000
vt 0.438360 0.347840
vt 0.500670 0.335450
vt 0.500670 0.273960
vt 0.414830 0.291030
vt 0.385540 0.383140
vt 0.342060 0.339660
vt 0.350240 0.435960
vt 0.293430 0.412430
vt 0.337850 0.498270
vt 0.276360 0.498270
vt 0.350240 0.560580
vt 0.293430 0.584110
vt 0.385540 0.613400
vt 0.342060 0.656880
vt 0.438360 0.648700
vt 0.414830 0.705500
vt 0.500670 0.661090
vt 0.500670 0.722580
vt 0.562980 0.648700
vt 0.586510 0.705500
vt 0.615800 0.613400
vt 0.659280 0.656880
vt 0.651100 0.560580
vt 0.707900 0.584110
vt 0.663490 0.498270
vt 0.724980 0.498270
vt 0.651100 0.435960
vt 0.707900 0.412430
vt 0.615800 0.383140
vt 0.659280 0.339660
vt 0.562980 0.347840
vt 0.586510 0.291030
vt 0.500670 0.339710
vt 0.439990 0.351780
vt 0.388550 0.386150
vt 0.354180 0.437590
vt 0.342110 0.498270
vt 0.354180 0.558950
vt 0.388550 0.610390
vt 0.439990 0.644760
vt 0.500670 0.656830
vt 0.561350 0.644760
vt 0.612790 0.610390
vt 0.647160 0.558950
vt 0.659230 0.498270
vt 0.647160 0.437590
vt 0.612790 0.386150
vt 0.561350 0.351780
s 0
usemtl Material.001
f 5/1/1 6/2/1 7/3/1
f 8/4/2 9/5/2 10/6/2
f 11/7/3 12/8/3 13/9/3
f 14/10/4 15/11/4 16/12/4
f 17/13/5 18/14/5 19/15/5
f 20/16/6 21/17/6 22/18/6
f 23/19/7 24/20/7 25/21/7
f 26/22/8 27/23/8 28/24/8
f 29/25/9 30/26/9 31/27/9
f 96/28/10 97/29/10 98/30/10
f 98/30/10 99/31/10 100/32/10
f 100/32/10 101/33/10 102/34/10
f 102/34/10 103/35/10 104/36/10
f 104/36/10 105/37/10 106/38/10
f 106/38/10 107/39/10 108/40/10
f 108/40/10 109/41/10 110/42/10
f 110/42/10 111/43/10 96/28/10
f 96/28/10 98/30/10 100/32/10
f 100/32/10 102/34/10 104/36/10
f 104/36/10 106/38/10 108/40/10
f 108/40/10 110/42/10 96/28/10
f 96/28/10 100/32/10 104/36/10
f 104/36/10 108/40/10 96/28/10
f 1/44/10 2/45/10 3/46/10
f 1/44/10 3/46/10 4/47/10
f 32/48/11 33/49/11 34/50/11
f 32/48/11 34/50/11 35/51/11
f 36/52/12 37/48/12 38/51/12
f 36/52/13 38/51/13 39/53/13
f 40/54/14 41/52/14 42/53/14
f 40/54/14 42/53/14 43/55/14
f 44/56/15 45/54/15 46/55/15
s 1
f 44/56/15 46/55/15 47/57/15
s 0
f 48/58/16 49/56/16 50/57/16
f 48/58/16 50/57/16 51/59/16
f 52/60/17 53/58/17 54/59/17
f 52/60/18 54/59/18 55/61/18
f 56/62/19 57/60/19 58/61/19
f 56/62/19 58/61/19 59/63/19
f 60/64/20 61/62/20 62/63/20
s 1
f 60/64/20 62/63/20 63/65/20
s 0
f 64/66/21 65/64/21 66/65/21
f 64/66/21 66/65/21 67/67/21
f 68/68/22 69/66/22 70/67/22
f 68/68/23 70/67/23 71/69/23
f 72/70/24 73/68/24 74/69/24
f 72/70/24 74/69/24 75/71/24
f 76/72/25 77/70/25 78/71/25
s 1
f 76/72/25 78/71/25 79/73/25
s 0
f 80/74/26 81/72/26 82/73/26
f 80/74/26 82/73/26 83/75/26
f 84/76/27 85/74/27 86/75/27
f 84/76/28 86/75/28 87/77/28
f 88/78/29 89/76/29 90/77/29
f 88/78/29 90/77/29 91/79/29
f 92/49/30 93/78/30 94/79/30
s 1
f 92/49/30 94/79/30 95/50/30
s 0
f 112/29/31 113/28/31 114/80/31
f 112/29/31 114/80/31 115/81/31
f 116/30/32 117/29/32 118/81/32
f 116/30/32 118/81/32 119/82/32
f 120/31/33 121/30/33 122/82/33
f 120/31/33 122/82/33 123/83/33
f 124/32/34 125/31/34 126/83/34
f 124/32/34 126/83/34 127/84/34
f 128/33/35 129/32/35 130/84/35
f 128/33/35 130/84/35 131/85/35
f 132/34/36 133/33/36 134/85/36
f 132/34/36 134/85/36 135/86/36
f 136/35/37 137/34/37 138/86/37
f 136/35/37 138/86/37 139/87/37
f 140/36/38 141/35/38 142/87/38
f 140/36/38 142/87/38 143/88/38
f 144/37/39 145/36/39 146/88/39
f 144/37/39 146/88/39 147/89/39
f 148/38/40 149/37/40 150/89/40
f 148/38/40 150/89/40 151/90/40
f 152/39/41 153/38/41 154/90/41
f 152/39/41 154/90/41 155/91/41
f 156/40/42 157/39/42 158/91/42
f 156/40/42 158/91/42 159/92/42
f 160/41/43 161/40/43 162/92/43
f 160/41/43 162/92/43 163/93/43
f 164/42/44 165/41/44 166/93/44
f 164/42/44 166/93/44 167/94/44
f 168/43/45 169/42/45 170/94/45
f 168/43/45 170/94/45 171/95/45
f 172/28/46 173/43/46 174/95/46
f 172/28/46 174/95/46 175/80/46
