{
  "accessors": [
    {
      "bufferView": 2,
      "componentType": 5126,
      "count": 438,
      "max": [
        80.7958984375,
        135.42694091796875,
        34.85263442993164
      ],
      "min": [
        -80.26177978515625,
        94.48849487304688,
        -60.19144821166992
      ],
      "type": "VEC3"
    },
    {
      "bufferView": 2,
      "byteOffset": 5256,
      "componentType": 5126,
      "count": 438,
      "max": [
        1.0,
        0.996233344078064,
        0.8835767507553101
      ],
      "min": [
        -1.0,
        -0.638785183429718,
        -0.9999647736549377
      ],
      "type": "VEC3"
    },
    {
      "bufferView": 3,
      "componentType": 5126,
      "count": 438,
      "max": [
        1.0,
        0.999416708946228,
        0.9999919533729553,
        1.0
      ],
      "min": [
        -1.0,
        -0.9959092736244202,
        -0.9999880194664001,
        -1.0
      ],
      "type": "VEC4"
    },
    {
      "bufferView": 1,
      "componentType": 5126,
      "count": 438,
      "max": [
        1.7903120517730713,
        0.5659170150756836
      ],
      "min": [
        1.0070910453796387,
        0.19624899327754974
      ],
      "type": "VEC2"
    },
    {
      "bufferView": 0,
      "componentType": 5125,
      "count": 1332,
      "type": "SCALAR"
    },
    {
      "bufferView": 2,
      "byteOffset": 10512,
      "componentType": 5126,
      "count": 4339,
      "max": [
        83.17105102539063,
        146.0831298828125,
        37.184139251708984
      ],
      "min": [
        -83.17105102539063,
        13.253074645996094,
        -63.498905181884766
      ],
      "type": "VEC3"
    },
    {
      "bufferView": 2,
      "byteOffset": 62580,
      "componentType": 5126,
      "count": 4339,
      "max": [
        1.0,
        1.0,
        1.0
      ],
      "min": [
        -1.0,
        -1.0,
        -1.0
      ],
      "type": "VEC3"
    },
    {
      "bufferView": 3,
      "byteOffset": 7008,
      "componentType": 5126,
      "count": 4339,
      "max": [
        1.0,
        1.0,
        1.0,
        1.0
      ],
      "min": [
        -1.0,
        -1.0,
        -1.0,
        -1.0
      ],
      "type": "VEC4"
    },
    {
      "bufferView": 1,
      "byteOffset": 3504,
      "componentType": 5126,
      "count": 4339,
      "max": [
        1.9964720010757446,
        0.9935500025749207
      ],
      "min": [
        1.0057710409164429,
        0.002392000053077936
      ],
      "type": "VEC2"
    },
    {
      "bufferView": 0,
      "byteOffset": 5328,
      "componentType": 5125,
      "count": 15177,
      "type": "SCALAR"
    },
    {
      "bufferView": 2,
      "byteOffset": 114648,
      "componentType": 5126,
      "count": 3171,
      "max": [
        80.61161804199219,
        137.18743896484375,
        35.38395690917969
      ],
      "min": [
        -81.33807373046875,
        13.246833801269531,
        -60.84300994873047
      ],
      "type": "VEC3"
    },
    {
      "bufferView": 2,
      "byteOffset": 152700,
      "componentType": 5126,
      "count": 3171,
      "max": [
        0.9999998807907104,
        1.0,
        1.0
      ],
      "min": [
        -0.9999998807907104,
        -0.9999953508377075,
        -0.9999998807907104
      ],
      "type": "VEC3"
    },
    {
      "bufferView": 3,
      "byteOffset": 76432,
      "componentType": 5126,
      "count": 3171,
      "max": [
        1.0,
        1.0,
        1.0,
        1.0
      ],
      "min": [
        -1.0,
        -1.0,
        -1.0,
        -1.0
      ],
      "type": "VEC4"
    },
    {
      "bufferView": 1,
      "byteOffset": 38216,
      "componentType": 5126,
      "count": 3171,
      "max": [
        0.9981319904327393,
        0.9945409893989563
      ],
      "min": [
        0.0,
        0.0
      ],
      "type": "VEC2"
    },
    {
      "bufferView": 0,
      "byteOffset": 66036,
      "componentType": 5125,
      "count": 8394,
      "type": "SCALAR"
    }
  ],
  "asset": {
    "extras": {
      "author": "Stefan_dot_obj (https://sketchfab.com/stefanprops)",
      "license": "CC-BY-4.0 (http://creativecommons.org/licenses/by/4.0/)",
      "source": "https://sketchfab.com/3d-models/antique-bureau-desk-768ad93bf0904a4d9caed9bec2e81764",
      "title": "Antique Bureau Desk"
    },
    "generator": "Sketchfab-15.87.0",
    "version": "2.0"
  },
  "bufferViews": [
    {
      "buffer": 0,
      "byteLength": 99612,
      "name": "floatBufferViews",
      "target": 34963
    },
    {
      "buffer": 0,
      "byteLength": 63584,
      "byteOffset": 99612,
      "byteStride": 8,
      "name": "floatBufferViews",
      "target": 34962
    },
    {
      "buffer": 0,
      "byteLength": 190752,
      "byteOffset": 163196,
      "byteStride": 12,
      "name": "floatBufferViews",
      "target": 34962
    },
    {
      "buffer": 0,
      "byteLength": 127168,
      "byteOffset": 353948,
      "byteStride": 16,
      "name": "floatBufferViews",
      "target": 34962
    }
  ],
  "buffers": [
    {
      "byteLength": 481116,
      "uri": "scene.bin"
    }
  ],
  "images": [
    {
      "uri": "textures/phong2SG_1002_baseColor.jpeg"
    },
    {
      "uri": "textures/phong2SG_1002_metallicRoughness.png"
    },
    {
      "uri": "textures/phong2SG_1002_normal.png"
    },
    {
      "uri": "textures/phong2SG_1001_baseColor.jpeg"
    },
    {
      "uri": "textures/phong2SG_1001_metallicRoughness.png"
    },
    {
      "uri": "textures/phong2SG_1001_normal.png"
    }
  ],
  "materials": [
    {
      "doubleSided": true,
      "name": "phong2SG_1002",
      "normalTexture": {
        "index": 2
      },
      "occlusionTexture": {
        "index": 1
      },
      "pbrMetallicRoughness": {
        "baseColorTexture": {
          "index": 0
        },
        "metallicRoughnessTexture": {
          "index": 1
        }
      }
    },
    {
      "doubleSided": true,
      "name": "phong2SG_1001",
      "normalTexture": {
        "index": 5
      },
      "occlusionTexture": {
        "index": 4
      },
      "pbrMetallicRoughness": {
        "baseColorTexture": {
          "index": 3
        },
        "metallicRoughnessTexture": {
          "index": 4
        }
      }
    }
  ],
  "meshes": [
    {
      "name": "defaultMaterial",
      "primitives": [
        {
          "attributes": {
            "NORMAL": 1,
            "POSITION": 0,
            "TANGENT": 2,
            "TEXCOORD_0": 3
          },
          "indices": 4,
          "material": 0,
          "mode": 4
        }
      ]
    },
    {
      "name": "defaultMaterial",
      "primitives": [
        {
          "attributes": {
            "NORMAL": 6,
            "POSITION": 5,
            "TANGENT": 7,
            "TEXCOORD_0": 8
          },
          "indices": 9,
          "material": 0,
          "mode": 4
        }
      ]
    },
    {
      "name": "defaultMaterial",
      "primitives": [
        {
          "attributes": {
            "NORMAL": 11,
            "POSITION": 10,
            "TANGENT": 12,
            "TEXCOORD_0": 13
          },
          "indices": 14,
          "material": 1,
          "mode": 4
        }
      ]
    }
  ],
  "nodes": [
    {
      "children": [
        1
      ],
      "matrix": [
        1.0,
        0.0,
        0.0,
        0.0,
        0.0,
        2.220446049250313e-16,
        -1.0,
        0.0,
        0.0,
        1.0,
        2.220446049250313e-16,
        0.0,
        0.0,
        0.0,
        0.0,
        1.0
      ],
      "name": "Sketchfab_model"
    },
    {
      "children": [
        2,
        4
      ],
      "matrix": [
        1.0,
        0.0,
        0.0,
        0.0,
        0.0,
        -4.371139006309477e-08,
        0.999999999999999,
        0.0,
        0.0,
        -0.999999999999999,
        -4.371139006309477e-08,
        0.0,
        0.0,
        0.0,
        0.0,
        1.0
      ],
      "name": "Collada visual scene group"
    },
    {
      "children": [
        3
      ],
      "name": "textureEditorIsolateSelectSet"
    },
    {
      "mesh": 0,
      "name": "defaultMaterial"
    },
    {
      "children": [
        5,
        6
      ],
      "name": "pPlane9"
    },
    {
      "mesh": 1,
      "name": "defaultMaterial"
    },
    {
      "mesh": 2,
      "name": "defaultMaterial"
    }
  ],
  "samplers": [
    {
      "magFilter": 9729,
      "minFilter": 9987,
      "wrapS": 10497,
      "wrapT": 10497
    }
  ],
  "scene": 0,
  "scenes": [
    {
      "name": "Sketchfab_Scene",
      "nodes": [
        0
      ]
    }
  ],
  "textures": [
    {
      "sampler": 0,
      "source": 0
    },
    {
      "sampler": 0,
      "source": 1
    },
    {
      "sampler": 0,
      "source": 2
    },
    {
      "sampler": 0,
      "source": 3
    },
    {
      "sampler": 0,
      "source": 4
    },
    {
      "sampler": 0,
      "source": 5
    }
  ]
}
